<svg xmlns="http://www.w3.org/2000/svg" xmlns:xlink="http://www.w3.org/1999/xlink" width="150" zoomAndPan="magnify" viewBox="0 0 112.5 30.000001" height="40" preserveAspectRatio="xMidYMid meet" version="1.0"><defs><g/></defs><g fill="#9784af" fill-opacity="0.4"><g transform="translate(4.076093, 24.063872)"><g><path d="M 8.125 -14.5625 L 8.125 0.921875 C 8.125 1.117188 8.023438 1.21875 7.828125 1.21875 L 5.671875 1.21875 C 5.472656 1.21875 5.375 1.117188 5.375 0.921875 L 5.375 -14.5625 L 0.65625 -14.5625 C 0.570312 -14.5625 0.5 -14.585938 0.4375 -14.640625 C 0.382812 -14.703125 0.359375 -14.78125 0.359375 -14.875 L 0.359375 -16.828125 C 0.359375 -16.910156 0.382812 -16.976562 0.4375 -17.03125 C 0.5 -17.082031 0.570312 -17.109375 0.65625 -17.109375 L 12.859375 -17.109375 C 12.941406 -17.109375 13.007812 -17.082031 13.0625 -17.03125 C 13.125 -16.976562 13.15625 -16.910156 13.15625 -16.828125 L 13.15625 -14.875 C 13.15625 -14.664062 13.054688 -14.5625 12.859375 -14.5625 Z M 8.125 -14.5625 "/></g></g></g><g fill="#9784af" fill-opacity="0.4"><g transform="translate(17.327487, 24.063872)"><g><path d="M 12.28125 -4.90625 C 12.28125 -4.78125 12.242188 -4.679688 12.171875 -4.609375 C 12.097656 -4.546875 12.019531 -4.515625 11.9375 -4.515625 L 3.9375 -4.515625 C 4.019531 -3.429688 4.359375 -2.546875 4.953125 -1.859375 C 5.554688 -1.171875 6.378906 -0.828125 7.421875 -0.828125 C 7.953125 -0.828125 8.554688 -0.894531 9.234375 -1.03125 C 9.921875 -1.164062 10.546875 -1.40625 11.109375 -1.75 C 11.222656 -1.8125 11.296875 -1.800781 11.328125 -1.71875 C 11.359375 -1.644531 11.375 -1.539062 11.375 -1.40625 L 11.375 0.265625 C 11.375 0.410156 11.347656 0.523438 11.296875 0.609375 C 11.253906 0.691406 11.160156 0.769531 11.015625 0.84375 C 10.523438 1.101562 9.953125 1.289062 9.296875 1.40625 C 8.640625 1.519531 7.972656 1.578125 7.296875 1.578125 C 5.285156 1.578125 3.765625 0.972656 2.734375 -0.234375 C 1.703125 -1.441406 1.1875 -3.210938 1.1875 -5.546875 C 1.1875 -6.421875 1.300781 -7.28125 1.53125 -8.125 C 1.757812 -8.96875 2.101562 -9.71875 2.5625 -10.375 C 3.03125 -11.039062 3.617188 -11.578125 4.328125 -11.984375 C 5.035156 -12.390625 5.878906 -12.59375 6.859375 -12.59375 C 7.847656 -12.59375 8.6875 -12.40625 9.375 -12.03125 C 10.0625 -11.65625 10.625 -11.148438 11.0625 -10.515625 C 11.5 -9.890625 11.8125 -9.15625 12 -8.3125 C 12.195312 -7.46875 12.296875 -6.566406 12.296875 -5.609375 C 12.296875 -5.503906 12.289062 -5.378906 12.28125 -5.234375 C 12.28125 -5.085938 12.28125 -4.976562 12.28125 -4.90625 Z M 6.953125 -10.265625 C 6.515625 -10.265625 6.125 -10.164062 5.78125 -9.96875 C 5.445312 -9.769531 5.15625 -9.515625 4.90625 -9.203125 C 4.664062 -8.898438 4.46875 -8.546875 4.3125 -8.140625 C 4.15625 -7.734375 4.046875 -7.328125 3.984375 -6.921875 L 9.5625 -6.921875 C 9.5625 -7.253906 9.503906 -7.613281 9.390625 -8 C 9.285156 -8.382812 9.128906 -8.742188 8.921875 -9.078125 C 8.710938 -9.410156 8.445312 -9.691406 8.125 -9.921875 C 7.800781 -10.148438 7.410156 -10.265625 6.953125 -10.265625 Z M 6.953125 -10.265625 "/></g></g></g><g fill="#9784af" fill-opacity="0.4"><g transform="translate(30.578882, 24.063872)"><g><path d="M 8.65625 1 C 8.425781 1.144531 8.0625 1.273438 7.5625 1.390625 C 7.070312 1.515625 6.546875 1.578125 5.984375 1.578125 C 5.296875 1.578125 4.75 1.4375 4.34375 1.15625 C 3.945312 0.875 3.648438 0.546875 3.453125 0.171875 C 3.222656 -0.253906 3.082031 -0.75 3.03125 -1.3125 C 2.988281 -1.875 2.96875 -2.644531 2.96875 -3.625 L 2.96875 -9.71875 L 0.953125 -9.71875 C 0.867188 -9.71875 0.796875 -9.742188 0.734375 -9.796875 C 0.679688 -9.859375 0.65625 -9.929688 0.65625 -10.015625 L 0.65625 -11.9375 C 0.65625 -12.019531 0.679688 -12.085938 0.734375 -12.140625 C 0.796875 -12.203125 0.867188 -12.234375 0.953125 -12.234375 L 2.96875 -12.234375 L 2.96875 -15.640625 C 2.96875 -15.710938 3 -15.773438 3.0625 -15.828125 C 3.125 -15.890625 3.195312 -15.921875 3.28125 -15.921875 L 5.25 -15.921875 C 5.34375 -15.921875 5.414062 -15.890625 5.46875 -15.828125 C 5.53125 -15.773438 5.5625 -15.710938 5.5625 -15.640625 L 5.5625 -12.234375 L 7.90625 -12.234375 C 7.976562 -12.234375 8.039062 -12.203125 8.09375 -12.140625 C 8.15625 -12.085938 8.1875 -12.019531 8.1875 -11.9375 L 8.1875 -10.015625 C 8.1875 -9.929688 8.15625 -9.859375 8.09375 -9.796875 C 8.039062 -9.742188 7.976562 -9.71875 7.90625 -9.71875 L 5.5625 -9.71875 L 5.5625 -3.453125 C 5.5625 -2.347656 5.585938 -1.648438 5.640625 -1.359375 C 5.703125 -1.066406 5.851562 -0.890625 6.09375 -0.828125 C 6.34375 -0.765625 6.617188 -0.75 6.921875 -0.78125 C 7.140625 -0.8125 7.375 -0.851562 7.625 -0.90625 C 7.882812 -0.96875 8.113281 -1.039062 8.3125 -1.125 C 8.394531 -1.15625 8.453125 -1.15625 8.484375 -1.125 C 8.515625 -1.101562 8.546875 -1.03125 8.578125 -0.90625 L 8.78125 0.703125 C 8.789062 0.816406 8.75 0.914062 8.65625 1 Z M 8.65625 1 "/></g></g></g><g fill="#9784af" fill-opacity="0.4"><g transform="translate(39.405034, 24.063872)"><g><path d="M 10.484375 1.234375 C 10.265625 1.234375 10.15625 1.140625 10.15625 0.953125 L 10.15625 -6.859375 C 10.15625 -8.066406 9.976562 -8.953125 9.625 -9.515625 C 9.28125 -10.078125 8.726562 -10.359375 7.96875 -10.359375 C 6.269531 -10.359375 5.191406 -9.707031 4.734375 -8.40625 L 4.734375 0.953125 C 4.734375 1.140625 4.640625 1.234375 4.453125 1.234375 L 2.453125 1.234375 C 2.367188 1.234375 2.296875 1.203125 2.234375 1.140625 C 2.179688 1.085938 2.15625 1.023438 2.15625 0.953125 L 2.15625 -18.203125 C 2.15625 -18.285156 2.179688 -18.351562 2.234375 -18.40625 C 2.296875 -18.46875 2.367188 -18.5 2.453125 -18.5 L 4.453125 -18.5 C 4.535156 -18.5 4.601562 -18.46875 4.65625 -18.40625 C 4.707031 -18.351562 4.734375 -18.285156 4.734375 -18.203125 L 4.734375 -11.671875 C 5.140625 -12.015625 5.613281 -12.296875 6.15625 -12.515625 C 6.707031 -12.734375 7.304688 -12.84375 7.953125 -12.84375 C 11.160156 -12.84375 12.765625 -10.851562 12.765625 -6.875 L 12.765625 0.953125 C 12.765625 1.023438 12.734375 1.085938 12.671875 1.140625 C 12.617188 1.203125 12.550781 1.234375 12.46875 1.234375 Z M 10.484375 1.234375 "/></g></g></g><g fill="#9784af" fill-opacity="0.4"><g transform="translate(54.139616, 24.063872)"><g><path d="M 12.28125 -4.90625 C 12.28125 -4.78125 12.242188 -4.679688 12.171875 -4.609375 C 12.097656 -4.546875 12.019531 -4.515625 11.9375 -4.515625 L 3.9375 -4.515625 C 4.019531 -3.429688 4.359375 -2.546875 4.953125 -1.859375 C 5.554688 -1.171875 6.378906 -0.828125 7.421875 -0.828125 C 7.953125 -0.828125 8.554688 -0.894531 9.234375 -1.03125 C 9.921875 -1.164062 10.546875 -1.40625 11.109375 -1.75 C 11.222656 -1.8125 11.296875 -1.800781 11.328125 -1.71875 C 11.359375 -1.644531 11.375 -1.539062 11.375 -1.40625 L 11.375 0.265625 C 11.375 0.410156 11.347656 0.523438 11.296875 0.609375 C 11.253906 0.691406 11.160156 0.769531 11.015625 0.84375 C 10.523438 1.101562 9.953125 1.289062 9.296875 1.40625 C 8.640625 1.519531 7.972656 1.578125 7.296875 1.578125 C 5.285156 1.578125 3.765625 0.972656 2.734375 -0.234375 C 1.703125 -1.441406 1.1875 -3.210938 1.1875 -5.546875 C 1.1875 -6.421875 1.300781 -7.28125 1.53125 -8.125 C 1.757812 -8.96875 2.101562 -9.71875 2.5625 -10.375 C 3.03125 -11.039062 3.617188 -11.578125 4.328125 -11.984375 C 5.035156 -12.390625 5.878906 -12.59375 6.859375 -12.59375 C 7.847656 -12.59375 8.6875 -12.40625 9.375 -12.03125 C 10.0625 -11.65625 10.625 -11.148438 11.0625 -10.515625 C 11.5 -9.890625 11.8125 -9.15625 12 -8.3125 C 12.195312 -7.46875 12.296875 -6.566406 12.296875 -5.609375 C 12.296875 -5.503906 12.289062 -5.378906 12.28125 -5.234375 C 12.28125 -5.085938 12.28125 -4.976562 12.28125 -4.90625 Z M 6.953125 -10.265625 C 6.515625 -10.265625 6.125 -10.164062 5.78125 -9.96875 C 5.445312 -9.769531 5.15625 -9.515625 4.90625 -9.203125 C 4.664062 -8.898438 4.46875 -8.546875 4.3125 -8.140625 C 4.15625 -7.734375 4.046875 -7.328125 3.984375 -6.921875 L 9.5625 -6.921875 C 9.5625 -7.253906 9.503906 -7.613281 9.390625 -8 C 9.285156 -8.382812 9.128906 -8.742188 8.921875 -9.078125 C 8.710938 -9.410156 8.445312 -9.691406 8.125 -9.921875 C 7.800781 -10.148438 7.410156 -10.265625 6.953125 -10.265625 Z M 6.953125 -10.265625 "/></g></g></g><g fill="#9784af" fill-opacity="0.4"><g transform="translate(67.391011, 24.063872)"><g><path d="M 8.515625 -9.796875 C 8.179688 -9.878906 7.894531 -9.929688 7.65625 -9.953125 C 7.414062 -9.984375 7.207031 -9.976562 7.03125 -9.9375 C 6.539062 -9.84375 6.144531 -9.632812 5.84375 -9.3125 C 5.539062 -9 5.3125 -8.628906 5.15625 -8.203125 C 5.007812 -7.785156 4.910156 -7.332031 4.859375 -6.84375 C 4.816406 -6.363281 4.796875 -5.90625 4.796875 -5.46875 L 4.796875 0.84375 C 4.796875 1.070312 4.695312 1.1875 4.5 1.1875 L 2.484375 1.1875 C 2.304688 1.1875 2.21875 1.066406 2.21875 0.828125 L 2.21875 -8.96875 C 2.21875 -9.488281 2.207031 -10.007812 2.1875 -10.53125 C 2.164062 -11.050781 2.15625 -11.503906 2.15625 -11.890625 C 2.15625 -12.035156 2.179688 -12.128906 2.234375 -12.171875 C 2.285156 -12.210938 2.367188 -12.234375 2.484375 -12.234375 L 4.5 -12.234375 C 4.613281 -12.234375 4.675781 -12.210938 4.6875 -12.171875 C 4.707031 -12.140625 4.71875 -12.085938 4.71875 -12.015625 L 4.71875 -10.9375 C 4.832031 -11.132812 4.984375 -11.328125 5.171875 -11.515625 C 5.359375 -11.710938 5.5625 -11.890625 5.78125 -12.046875 C 6 -12.203125 6.21875 -12.320312 6.4375 -12.40625 C 6.664062 -12.5 6.878906 -12.546875 7.078125 -12.546875 C 7.378906 -12.546875 7.65625 -12.539062 7.90625 -12.53125 C 8.164062 -12.519531 8.429688 -12.4375 8.703125 -12.28125 C 8.785156 -12.25 8.832031 -12.195312 8.84375 -12.125 C 8.863281 -12.050781 8.875 -11.976562 8.875 -11.90625 L 8.875 -10.09375 C 8.875 -10.03125 8.847656 -9.957031 8.796875 -9.875 C 8.753906 -9.789062 8.660156 -9.765625 8.515625 -9.796875 Z M 8.515625 -9.796875 "/></g></g></g><g fill="#9784af" fill-opacity="0.4"><g transform="translate(76.217163, 24.063872)"><g><path d="M 3.09375 -14.8125 C 2.613281 -14.8125 2.21875 -14.96875 1.90625 -15.28125 C 1.59375 -15.59375 1.4375 -15.976562 1.4375 -16.4375 C 1.4375 -16.90625 1.59375 -17.300781 1.90625 -17.625 C 2.21875 -17.945312 2.613281 -18.109375 3.09375 -18.109375 C 3.5625 -18.109375 3.957031 -17.945312 4.28125 -17.625 C 4.601562 -17.300781 4.765625 -16.90625 4.765625 -16.4375 C 4.765625 -15.976562 4.601562 -15.59375 4.28125 -15.28125 C 3.957031 -14.96875 3.5625 -14.8125 3.09375 -14.8125 Z M 2.046875 1.234375 C 1.960938 1.234375 1.890625 1.203125 1.828125 1.140625 C 1.773438 1.085938 1.75 1.023438 1.75 0.953125 L 1.75 -11.859375 C 1.75 -11.941406 1.773438 -12.007812 1.828125 -12.0625 C 1.890625 -12.125 1.960938 -12.15625 2.046875 -12.15625 L 4.078125 -12.15625 C 4.160156 -12.15625 4.226562 -12.125 4.28125 -12.0625 C 4.34375 -12.007812 4.375 -11.941406 4.375 -11.859375 L 4.375 0.953125 C 4.375 1.023438 4.34375 1.085938 4.28125 1.140625 C 4.226562 1.203125 4.160156 1.234375 4.078125 1.234375 Z M 2.046875 1.234375 "/></g></g></g><g fill="#9784af" fill-opacity="0.4"><g transform="translate(82.101272, 24.063872)"><g><path d="M 9.359375 1.1875 C 9.242188 1.1875 9.171875 1.175781 9.140625 1.15625 C 9.109375 1.132812 9.09375 1.070312 9.09375 0.96875 L 9.09375 -0.125 C 8.6875 0.445312 8.171875 0.875 7.546875 1.15625 C 6.921875 1.4375 6.296875 1.578125 5.671875 1.578125 C 5.003906 1.578125 4.390625 1.488281 3.828125 1.3125 C 3.265625 1.132812 2.785156 0.863281 2.390625 0.5 C 1.992188 0.144531 1.679688 -0.289062 1.453125 -0.8125 C 1.234375 -1.34375 1.125 -1.957031 1.125 -2.65625 C 1.125 -3.476562 1.269531 -4.203125 1.5625 -4.828125 C 1.851562 -5.453125 2.304688 -5.96875 2.921875 -6.375 C 3.546875 -6.789062 4.34375 -7.097656 5.3125 -7.296875 C 6.289062 -7.503906 7.46875 -7.609375 8.84375 -7.609375 C 8.84375 -7.921875 8.8125 -8.226562 8.75 -8.53125 C 8.6875 -8.84375 8.578125 -9.117188 8.421875 -9.359375 C 8.265625 -9.597656 8.046875 -9.796875 7.765625 -9.953125 C 7.492188 -10.109375 7.148438 -10.1875 6.734375 -10.1875 C 6.003906 -10.1875 5.34375 -10.085938 4.75 -9.890625 C 4.15625 -9.703125 3.601562 -9.441406 3.09375 -9.109375 C 2.832031 -8.953125 2.65625 -8.878906 2.5625 -8.890625 C 2.476562 -8.910156 2.4375 -9.003906 2.4375 -9.171875 L 2.4375 -11.015625 C 2.4375 -11.078125 2.429688 -11.144531 2.421875 -11.21875 C 2.410156 -11.289062 2.421875 -11.351562 2.453125 -11.40625 C 2.503906 -11.46875 2.625 -11.554688 2.8125 -11.671875 C 3.363281 -11.941406 3.925781 -12.164062 4.5 -12.34375 C 5.082031 -12.53125 5.8125 -12.625 6.6875 -12.625 C 8.320312 -12.625 9.53125 -12.222656 10.3125 -11.421875 C 11.101562 -10.628906 11.5 -9.382812 11.5 -7.6875 L 11.5 -1.921875 C 11.5 -1.460938 11.503906 -0.984375 11.515625 -0.484375 C 11.523438 0.00390625 11.550781 0.429688 11.59375 0.796875 C 11.625 1.054688 11.535156 1.1875 11.328125 1.1875 Z M 8.921875 -5.296875 C 7.117188 -5.296875 5.828125 -5.078125 5.046875 -4.640625 C 4.273438 -4.203125 3.890625 -3.546875 3.890625 -2.671875 C 3.890625 -2.054688 4.066406 -1.59375 4.421875 -1.28125 C 4.773438 -0.976562 5.253906 -0.828125 5.859375 -0.828125 C 6.785156 -0.828125 7.523438 -1.164062 8.078125 -1.84375 C 8.640625 -2.53125 8.921875 -3.59375 8.921875 -5.03125 Z M 8.921875 -5.296875 "/></g></g></g><g fill="#9784af" fill-opacity="0.4"><g transform="translate(95.352666, 24.063872)"><g><path d="M 10.453125 1.1875 C 10.367188 1.1875 10.296875 1.148438 10.234375 1.078125 C 10.179688 1.003906 10.15625 0.925781 10.15625 0.84375 L 10.15625 -6.875 C 10.15625 -8.039062 9.972656 -8.882812 9.609375 -9.40625 C 9.242188 -9.925781 8.675781 -10.1875 7.90625 -10.1875 C 6.832031 -10.1875 6.039062 -9.890625 5.53125 -9.296875 C 5.019531 -8.703125 4.765625 -7.847656 4.765625 -6.734375 L 4.765625 0.875 C 4.765625 1.082031 4.664062 1.1875 4.46875 1.1875 L 2.453125 1.1875 C 2.367188 1.1875 2.296875 1.148438 2.234375 1.078125 C 2.179688 1.003906 2.15625 0.925781 2.15625 0.84375 L 2.15625 -8.828125 C 2.15625 -9.441406 2.148438 -10.03125 2.140625 -10.59375 C 2.140625 -11.164062 2.125 -11.613281 2.09375 -11.9375 C 2.0625 -12.144531 2.175781 -12.25 2.4375 -12.25 L 4.359375 -12.25 C 4.535156 -12.25 4.609375 -12.1875 4.578125 -12.0625 L 4.546875 -11.1875 C 4.953125 -11.570312 5.4375 -11.898438 6 -12.171875 C 6.570312 -12.453125 7.226562 -12.59375 7.96875 -12.59375 C 9.53125 -12.59375 10.71875 -12.132812 11.53125 -11.21875 C 12.351562 -10.300781 12.765625 -8.976562 12.765625 -7.25 L 12.765625 0.875 C 12.765625 1.082031 12.664062 1.1875 12.46875 1.1875 Z M 10.453125 1.1875 "/></g></g></g><g fill="#fefefe" fill-opacity="1"><g transform="translate(3.00151, 22.98929)"><g><path d="M 8.125 -14.5625 L 8.125 0.921875 C 8.125 1.117188 8.023438 1.21875 7.828125 1.21875 L 5.671875 1.21875 C 5.472656 1.21875 5.375 1.117188 5.375 0.921875 L 5.375 -14.5625 L 0.65625 -14.5625 C 0.570312 -14.5625 0.5 -14.585938 0.4375 -14.640625 C 0.382812 -14.703125 0.359375 -14.78125 0.359375 -14.875 L 0.359375 -16.828125 C 0.359375 -16.910156 0.382812 -16.976562 0.4375 -17.03125 C 0.5 -17.082031 0.570312 -17.109375 0.65625 -17.109375 L 12.859375 -17.109375 C 12.941406 -17.109375 13.007812 -17.082031 13.0625 -17.03125 C 13.125 -16.976562 13.15625 -16.910156 13.15625 -16.828125 L 13.15625 -14.875 C 13.15625 -14.664062 13.054688 -14.5625 12.859375 -14.5625 Z M 8.125 -14.5625 "/></g></g></g><g fill="#fefefe" fill-opacity="1"><g transform="translate(16.252905, 22.98929)"><g><path d="M 12.28125 -4.90625 C 12.28125 -4.78125 12.242188 -4.679688 12.171875 -4.609375 C 12.097656 -4.546875 12.019531 -4.515625 11.9375 -4.515625 L 3.9375 -4.515625 C 4.019531 -3.429688 4.359375 -2.546875 4.953125 -1.859375 C 5.554688 -1.171875 6.378906 -0.828125 7.421875 -0.828125 C 7.953125 -0.828125 8.554688 -0.894531 9.234375 -1.03125 C 9.921875 -1.164062 10.546875 -1.40625 11.109375 -1.75 C 11.222656 -1.8125 11.296875 -1.800781 11.328125 -1.71875 C 11.359375 -1.644531 11.375 -1.539062 11.375 -1.40625 L 11.375 0.265625 C 11.375 0.410156 11.347656 0.523438 11.296875 0.609375 C 11.253906 0.691406 11.160156 0.769531 11.015625 0.84375 C 10.523438 1.101562 9.953125 1.289062 9.296875 1.40625 C 8.640625 1.519531 7.972656 1.578125 7.296875 1.578125 C 5.285156 1.578125 3.765625 0.972656 2.734375 -0.234375 C 1.703125 -1.441406 1.1875 -3.210938 1.1875 -5.546875 C 1.1875 -6.421875 1.300781 -7.28125 1.53125 -8.125 C 1.757812 -8.96875 2.101562 -9.71875 2.5625 -10.375 C 3.03125 -11.039062 3.617188 -11.578125 4.328125 -11.984375 C 5.035156 -12.390625 5.878906 -12.59375 6.859375 -12.59375 C 7.847656 -12.59375 8.6875 -12.40625 9.375 -12.03125 C 10.0625 -11.65625 10.625 -11.148438 11.0625 -10.515625 C 11.5 -9.890625 11.8125 -9.15625 12 -8.3125 C 12.195312 -7.46875 12.296875 -6.566406 12.296875 -5.609375 C 12.296875 -5.503906 12.289062 -5.378906 12.28125 -5.234375 C 12.28125 -5.085938 12.28125 -4.976562 12.28125 -4.90625 Z M 6.953125 -10.265625 C 6.515625 -10.265625 6.125 -10.164062 5.78125 -9.96875 C 5.445312 -9.769531 5.15625 -9.515625 4.90625 -9.203125 C 4.664062 -8.898438 4.46875 -8.546875 4.3125 -8.140625 C 4.15625 -7.734375 4.046875 -7.328125 3.984375 -6.921875 L 9.5625 -6.921875 C 9.5625 -7.253906 9.503906 -7.613281 9.390625 -8 C 9.285156 -8.382812 9.128906 -8.742188 8.921875 -9.078125 C 8.710938 -9.410156 8.445312 -9.691406 8.125 -9.921875 C 7.800781 -10.148438 7.410156 -10.265625 6.953125 -10.265625 Z M 6.953125 -10.265625 "/></g></g></g><g fill="#fefefe" fill-opacity="1"><g transform="translate(29.504299, 22.98929)"><g><path d="M 8.65625 1 C 8.425781 1.144531 8.0625 1.273438 7.5625 1.390625 C 7.070312 1.515625 6.546875 1.578125 5.984375 1.578125 C 5.296875 1.578125 4.75 1.4375 4.34375 1.15625 C 3.945312 0.875 3.648438 0.546875 3.453125 0.171875 C 3.222656 -0.253906 3.082031 -0.75 3.03125 -1.3125 C 2.988281 -1.875 2.96875 -2.644531 2.96875 -3.625 L 2.96875 -9.71875 L 0.953125 -9.71875 C 0.867188 -9.71875 0.796875 -9.742188 0.734375 -9.796875 C 0.679688 -9.859375 0.65625 -9.929688 0.65625 -10.015625 L 0.65625 -11.9375 C 0.65625 -12.019531 0.679688 -12.085938 0.734375 -12.140625 C 0.796875 -12.203125 0.867188 -12.234375 0.953125 -12.234375 L 2.96875 -12.234375 L 2.96875 -15.640625 C 2.96875 -15.710938 3 -15.773438 3.0625 -15.828125 C 3.125 -15.890625 3.195312 -15.921875 3.28125 -15.921875 L 5.25 -15.921875 C 5.34375 -15.921875 5.414062 -15.890625 5.46875 -15.828125 C 5.53125 -15.773438 5.5625 -15.710938 5.5625 -15.640625 L 5.5625 -12.234375 L 7.90625 -12.234375 C 7.976562 -12.234375 8.039062 -12.203125 8.09375 -12.140625 C 8.15625 -12.085938 8.1875 -12.019531 8.1875 -11.9375 L 8.1875 -10.015625 C 8.1875 -9.929688 8.15625 -9.859375 8.09375 -9.796875 C 8.039062 -9.742188 7.976562 -9.71875 7.90625 -9.71875 L 5.5625 -9.71875 L 5.5625 -3.453125 C 5.5625 -2.347656 5.585938 -1.648438 5.640625 -1.359375 C 5.703125 -1.066406 5.851562 -0.890625 6.09375 -0.828125 C 6.34375 -0.765625 6.617188 -0.75 6.921875 -0.78125 C 7.140625 -0.8125 7.375 -0.851562 7.625 -0.90625 C 7.882812 -0.96875 8.113281 -1.039062 8.3125 -1.125 C 8.394531 -1.15625 8.453125 -1.15625 8.484375 -1.125 C 8.515625 -1.101562 8.546875 -1.03125 8.578125 -0.90625 L 8.78125 0.703125 C 8.789062 0.816406 8.75 0.914062 8.65625 1 Z M 8.65625 1 "/></g></g></g><g fill="#fefefe" fill-opacity="1"><g transform="translate(38.330452, 22.98929)"><g><path d="M 10.484375 1.234375 C 10.265625 1.234375 10.15625 1.140625 10.15625 0.953125 L 10.15625 -6.859375 C 10.15625 -8.066406 9.976562 -8.953125 9.625 -9.515625 C 9.28125 -10.078125 8.726562 -10.359375 7.96875 -10.359375 C 6.269531 -10.359375 5.191406 -9.707031 4.734375 -8.40625 L 4.734375 0.953125 C 4.734375 1.140625 4.640625 1.234375 4.453125 1.234375 L 2.453125 1.234375 C 2.367188 1.234375 2.296875 1.203125 2.234375 1.140625 C 2.179688 1.085938 2.15625 1.023438 2.15625 0.953125 L 2.15625 -18.203125 C 2.15625 -18.285156 2.179688 -18.351562 2.234375 -18.40625 C 2.296875 -18.46875 2.367188 -18.5 2.453125 -18.5 L 4.453125 -18.5 C 4.535156 -18.5 4.601562 -18.46875 4.65625 -18.40625 C 4.707031 -18.351562 4.734375 -18.285156 4.734375 -18.203125 L 4.734375 -11.671875 C 5.140625 -12.015625 5.613281 -12.296875 6.15625 -12.515625 C 6.707031 -12.734375 7.304688 -12.84375 7.953125 -12.84375 C 11.160156 -12.84375 12.765625 -10.851562 12.765625 -6.875 L 12.765625 0.953125 C 12.765625 1.023438 12.734375 1.085938 12.671875 1.140625 C 12.617188 1.203125 12.550781 1.234375 12.46875 1.234375 Z M 10.484375 1.234375 "/></g></g></g><g fill="#fefefe" fill-opacity="1"><g transform="translate(53.065034, 22.98929)"><g><path d="M 12.28125 -4.90625 C 12.28125 -4.78125 12.242188 -4.679688 12.171875 -4.609375 C 12.097656 -4.546875 12.019531 -4.515625 11.9375 -4.515625 L 3.9375 -4.515625 C 4.019531 -3.429688 4.359375 -2.546875 4.953125 -1.859375 C 5.554688 -1.171875 6.378906 -0.828125 7.421875 -0.828125 C 7.953125 -0.828125 8.554688 -0.894531 9.234375 -1.03125 C 9.921875 -1.164062 10.546875 -1.40625 11.109375 -1.75 C 11.222656 -1.8125 11.296875 -1.800781 11.328125 -1.71875 C 11.359375 -1.644531 11.375 -1.539062 11.375 -1.40625 L 11.375 0.265625 C 11.375 0.410156 11.347656 0.523438 11.296875 0.609375 C 11.253906 0.691406 11.160156 0.769531 11.015625 0.84375 C 10.523438 1.101562 9.953125 1.289062 9.296875 1.40625 C 8.640625 1.519531 7.972656 1.578125 7.296875 1.578125 C 5.285156 1.578125 3.765625 0.972656 2.734375 -0.234375 C 1.703125 -1.441406 1.1875 -3.210938 1.1875 -5.546875 C 1.1875 -6.421875 1.300781 -7.28125 1.53125 -8.125 C 1.757812 -8.96875 2.101562 -9.71875 2.5625 -10.375 C 3.03125 -11.039062 3.617188 -11.578125 4.328125 -11.984375 C 5.035156 -12.390625 5.878906 -12.59375 6.859375 -12.59375 C 7.847656 -12.59375 8.6875 -12.40625 9.375 -12.03125 C 10.0625 -11.65625 10.625 -11.148438 11.0625 -10.515625 C 11.5 -9.890625 11.8125 -9.15625 12 -8.3125 C 12.195312 -7.46875 12.296875 -6.566406 12.296875 -5.609375 C 12.296875 -5.503906 12.289062 -5.378906 12.28125 -5.234375 C 12.28125 -5.085938 12.28125 -4.976562 12.28125 -4.90625 Z M 6.953125 -10.265625 C 6.515625 -10.265625 6.125 -10.164062 5.78125 -9.96875 C 5.445312 -9.769531 5.15625 -9.515625 4.90625 -9.203125 C 4.664062 -8.898438 4.46875 -8.546875 4.3125 -8.140625 C 4.15625 -7.734375 4.046875 -7.328125 3.984375 -6.921875 L 9.5625 -6.921875 C 9.5625 -7.253906 9.503906 -7.613281 9.390625 -8 C 9.285156 -8.382812 9.128906 -8.742188 8.921875 -9.078125 C 8.710938 -9.410156 8.445312 -9.691406 8.125 -9.921875 C 7.800781 -10.148438 7.410156 -10.265625 6.953125 -10.265625 Z M 6.953125 -10.265625 "/></g></g></g><g fill="#fefefe" fill-opacity="1"><g transform="translate(66.316428, 22.98929)"><g><path d="M 8.515625 -9.796875 C 8.179688 -9.878906 7.894531 -9.929688 7.65625 -9.953125 C 7.414062 -9.984375 7.207031 -9.976562 7.03125 -9.9375 C 6.539062 -9.84375 6.144531 -9.632812 5.84375 -9.3125 C 5.539062 -9 5.3125 -8.628906 5.15625 -8.203125 C 5.007812 -7.785156 4.910156 -7.332031 4.859375 -6.84375 C 4.816406 -6.363281 4.796875 -5.90625 4.796875 -5.46875 L 4.796875 0.84375 C 4.796875 1.070312 4.695312 1.1875 4.5 1.1875 L 2.484375 1.1875 C 2.304688 1.1875 2.21875 1.066406 2.21875 0.828125 L 2.21875 -8.96875 C 2.21875 -9.488281 2.207031 -10.007812 2.1875 -10.53125 C 2.164062 -11.050781 2.15625 -11.503906 2.15625 -11.890625 C 2.15625 -12.035156 2.179688 -12.128906 2.234375 -12.171875 C 2.285156 -12.210938 2.367188 -12.234375 2.484375 -12.234375 L 4.5 -12.234375 C 4.613281 -12.234375 4.675781 -12.210938 4.6875 -12.171875 C 4.707031 -12.140625 4.71875 -12.085938 4.71875 -12.015625 L 4.71875 -10.9375 C 4.832031 -11.132812 4.984375 -11.328125 5.171875 -11.515625 C 5.359375 -11.710938 5.5625 -11.890625 5.78125 -12.046875 C 6 -12.203125 6.21875 -12.320312 6.4375 -12.40625 C 6.664062 -12.5 6.878906 -12.546875 7.078125 -12.546875 C 7.378906 -12.546875 7.65625 -12.539062 7.90625 -12.53125 C 8.164062 -12.519531 8.429688 -12.4375 8.703125 -12.28125 C 8.785156 -12.25 8.832031 -12.195312 8.84375 -12.125 C 8.863281 -12.050781 8.875 -11.976562 8.875 -11.90625 L 8.875 -10.09375 C 8.875 -10.03125 8.847656 -9.957031 8.796875 -9.875 C 8.753906 -9.789062 8.660156 -9.765625 8.515625 -9.796875 Z M 8.515625 -9.796875 "/></g></g></g><g fill="#fefefe" fill-opacity="1"><g transform="translate(75.142581, 22.98929)"><g><path d="M 3.09375 -14.8125 C 2.613281 -14.8125 2.21875 -14.96875 1.90625 -15.28125 C 1.59375 -15.59375 1.4375 -15.976562 1.4375 -16.4375 C 1.4375 -16.90625 1.59375 -17.300781 1.90625 -17.625 C 2.21875 -17.945312 2.613281 -18.109375 3.09375 -18.109375 C 3.5625 -18.109375 3.957031 -17.945312 4.28125 -17.625 C 4.601562 -17.300781 4.765625 -16.90625 4.765625 -16.4375 C 4.765625 -15.976562 4.601562 -15.59375 4.28125 -15.28125 C 3.957031 -14.96875 3.5625 -14.8125 3.09375 -14.8125 Z M 2.046875 1.234375 C 1.960938 1.234375 1.890625 1.203125 1.828125 1.140625 C 1.773438 1.085938 1.75 1.023438 1.75 0.953125 L 1.75 -11.859375 C 1.75 -11.941406 1.773438 -12.007812 1.828125 -12.0625 C 1.890625 -12.125 1.960938 -12.15625 2.046875 -12.15625 L 4.078125 -12.15625 C 4.160156 -12.15625 4.226562 -12.125 4.28125 -12.0625 C 4.34375 -12.007812 4.375 -11.941406 4.375 -11.859375 L 4.375 0.953125 C 4.375 1.023438 4.34375 1.085938 4.28125 1.140625 C 4.226562 1.203125 4.160156 1.234375 4.078125 1.234375 Z M 2.046875 1.234375 "/></g></g></g><g fill="#fefefe" fill-opacity="1"><g transform="translate(81.02669, 22.98929)"><g><path d="M 9.359375 1.1875 C 9.242188 1.1875 9.171875 1.175781 9.140625 1.15625 C 9.109375 1.132812 9.09375 1.070312 9.09375 0.96875 L 9.09375 -0.125 C 8.6875 0.445312 8.171875 0.875 7.546875 1.15625 C 6.921875 1.4375 6.296875 1.578125 5.671875 1.578125 C 5.003906 1.578125 4.390625 1.488281 3.828125 1.3125 C 3.265625 1.132812 2.785156 0.863281 2.390625 0.5 C 1.992188 0.144531 1.679688 -0.289062 1.453125 -0.8125 C 1.234375 -1.34375 1.125 -1.957031 1.125 -2.65625 C 1.125 -3.476562 1.269531 -4.203125 1.5625 -4.828125 C 1.851562 -5.453125 2.304688 -5.96875 2.921875 -6.375 C 3.546875 -6.789062 4.34375 -7.097656 5.3125 -7.296875 C 6.289062 -7.503906 7.46875 -7.609375 8.84375 -7.609375 C 8.84375 -7.921875 8.8125 -8.226562 8.75 -8.53125 C 8.6875 -8.84375 8.578125 -9.117188 8.421875 -9.359375 C 8.265625 -9.597656 8.046875 -9.796875 7.765625 -9.953125 C 7.492188 -10.109375 7.148438 -10.1875 6.734375 -10.1875 C 6.003906 -10.1875 5.34375 -10.085938 4.75 -9.890625 C 4.15625 -9.703125 3.601562 -9.441406 3.09375 -9.109375 C 2.832031 -8.953125 2.65625 -8.878906 2.5625 -8.890625 C 2.476562 -8.910156 2.4375 -9.003906 2.4375 -9.171875 L 2.4375 -11.015625 C 2.4375 -11.078125 2.429688 -11.144531 2.421875 -11.21875 C 2.410156 -11.289062 2.421875 -11.351562 2.453125 -11.40625 C 2.503906 -11.46875 2.625 -11.554688 2.8125 -11.671875 C 3.363281 -11.941406 3.925781 -12.164062 4.5 -12.34375 C 5.082031 -12.53125 5.8125 -12.625 6.6875 -12.625 C 8.320312 -12.625 9.53125 -12.222656 10.3125 -11.421875 C 11.101562 -10.628906 11.5 -9.382812 11.5 -7.6875 L 11.5 -1.921875 C 11.5 -1.460938 11.503906 -0.984375 11.515625 -0.484375 C 11.523438 0.00390625 11.550781 0.429688 11.59375 0.796875 C 11.625 1.054688 11.535156 1.1875 11.328125 1.1875 Z M 8.921875 -5.296875 C 7.117188 -5.296875 5.828125 -5.078125 5.046875 -4.640625 C 4.273438 -4.203125 3.890625 -3.546875 3.890625 -2.671875 C 3.890625 -2.054688 4.066406 -1.59375 4.421875 -1.28125 C 4.773438 -0.976562 5.253906 -0.828125 5.859375 -0.828125 C 6.785156 -0.828125 7.523438 -1.164062 8.078125 -1.84375 C 8.640625 -2.53125 8.921875 -3.59375 8.921875 -5.03125 Z M 8.921875 -5.296875 "/></g></g></g><g fill="#fefefe" fill-opacity="1"><g transform="translate(94.278084, 22.98929)"><g><path d="M 10.453125 1.1875 C 10.367188 1.1875 10.296875 1.148438 10.234375 1.078125 C 10.179688 1.003906 10.15625 0.925781 10.15625 0.84375 L 10.15625 -6.875 C 10.15625 -8.039062 9.972656 -8.882812 9.609375 -9.40625 C 9.242188 -9.925781 8.675781 -10.1875 7.90625 -10.1875 C 6.832031 -10.1875 6.039062 -9.890625 5.53125 -9.296875 C 5.019531 -8.703125 4.765625 -7.847656 4.765625 -6.734375 L 4.765625 0.875 C 4.765625 1.082031 4.664062 1.1875 4.46875 1.1875 L 2.453125 1.1875 C 2.367188 1.1875 2.296875 1.148438 2.234375 1.078125 C 2.179688 1.003906 2.15625 0.925781 2.15625 0.84375 L 2.15625 -8.828125 C 2.15625 -9.441406 2.148438 -10.03125 2.140625 -10.59375 C 2.140625 -11.164062 2.125 -11.613281 2.09375 -11.9375 C 2.0625 -12.144531 2.175781 -12.25 2.4375 -12.25 L 4.359375 -12.25 C 4.535156 -12.25 4.609375 -12.1875 4.578125 -12.0625 L 4.546875 -11.1875 C 4.953125 -11.570312 5.4375 -11.898438 6 -12.171875 C 6.570312 -12.453125 7.226562 -12.59375 7.96875 -12.59375 C 9.53125 -12.59375 10.71875 -12.132812 11.53125 -11.21875 C 12.351562 -10.300781 12.765625 -8.976562 12.765625 -7.25 L 12.765625 0.875 C 12.765625 1.082031 12.664062 1.1875 12.46875 1.1875 Z M 10.453125 1.1875 "/></g></g></g></svg>